<svg xmlns="http://www.w3.org/2000/svg" xmlns:xlink="http://www.w3.org/1999/xlink" contentStyleType="text/css" data-diagram-type="CLASS" height="1239px" preserveAspectRatio="none" style="width:3595px;height:1239px;background:#FFFFFF;" version="1.1" viewBox="0 0 3595 1239" width="3595px" zoomAndPan="magnify"><defs/><g><!--class ChartSection--><g class="entity" data-entity="ChartSection" data-source-line="4" data-uid="ent0002" id="entity_ChartSection"><rect fill="#FFFFFF" height="554.4395" rx="2.5" ry="2.5" style="stroke:#000000;stroke-width:1;" width="1051.9854" x="1168.1" y="12"/><ellipse cx="1645.1161" cy="26" fill="#FFFFFF" rx="9" ry="9" style="stroke:#000000;stroke-width:1;"/><path d="M1647.5893,32.1431 Q1647.0082,32.4419 1646.369,32.5913 Q1645.7299,32.7407 1645.0243,32.7407 Q1642.5175,32.7407 1641.1977,31.0889 Q1639.8778,29.437 1639.8778,26.3159 Q1639.8778,23.1865 1641.1977,21.5347 Q1642.5175,19.8828 1645.0243,19.8828 Q1645.7299,19.8828 1646.3773,20.0322 Q1647.0248,20.1816 1647.5893,20.4805 L1647.5893,23.2031 Q1646.9584,22.6221 1646.3649,22.3523 Q1645.7714,22.0825 1645.1405,22.0825 Q1643.7958,22.0825 1643.111,23.1492 Q1642.4262,24.2158 1642.4262,26.3159 Q1642.4262,28.4077 1643.111,29.4744 Q1643.7958,30.541 1645.1405,30.541 Q1645.7714,30.541 1646.3649,30.2712 Q1646.9584,30.0015 1647.5893,29.4204 Z " fill="#000000"/><text fill="#000000" font-family="Verdana" font-size="14" lengthAdjust="spacing" textLength="90.4531" x="1662.6161" y="31.5679">ChartSection</text><line style="stroke:#000000;stroke-width:1;" x1="1169.1" x2="2219.0854" y1="40" y2="40"/><text fill="#000000" font-family="Verdana" font-size="14" lengthAdjust="spacing" textLength="75.6465" x="1174.1" y="58.0752">-name: str</text><text fill="#000000" font-family="Verdana" font-size="14" lengthAdjust="spacing" textLength="106.2305" x="1174.1" y="75.0898">-start_side: str</text><text fill="#000000" font-family="Verdana" font-size="14" lengthAdjust="spacing" textLength="204.9961" x="1174.1" y="92.1045">-row_manager: RowManager</text><text fill="#000000" font-family="Verdana" font-size="14" lengthAdjust="spacing" textLength="219.8301" x="1174.1" y="109.1191">-node_manager: NodeManager</text><text fill="#000000" font-family="Verdana" font-size="14" lengthAdjust="spacing" textLength="202.9863" x="1174.1" y="126.1338">-link_manager: LinkManager</text><text fill="#000000" font-family="Verdana" font-size="14" lengthAdjust="spacing" textLength="274.75" x="1174.1" y="143.1484">-position_calculator: PositionCalculator</text><text fill="#000000" font-family="Verdana" font-size="14" lengthAdjust="spacing" textLength="248.7598" x="1174.1" y="160.1631">-marker_manager: MarkerManager</text><text fill="#000000" font-family="Verdana" font-size="14" lengthAdjust="spacing" textLength="218.0801" x="1174.1" y="177.1777">-pattern_parser: PatternParser</text><line style="stroke:#000000;stroke-width:1;" x1="1169.1" x2="2219.0854" y1="184.1172" y2="184.1172"/><text fill="#000000" font-family="Verdana" font-size="14" lengthAdjust="spacing" textLength="211.0322" x="1174.1" y="202.1924">+get_current_row_num(): int</text><text fill="#000000" font-family="Verdana" font-size="14" lengthAdjust="spacing" textLength="261.3789" x="1174.1" y="219.207">+get_current_num_of_stitches(): int</text><text fill="#000000" font-family="Verdana" font-size="14" lengthAdjust="spacing" textLength="250.5645" x="1174.1" y="236.2217">+get_stitches_on_hold(): List[Dict]</text><text fill="#000000" font-family="Verdana" font-size="14" lengthAdjust="spacing" textLength="201.7354" x="1174.1" y="253.2363">+place_on_hold(): List[Dict]</text><text fill="#000000" font-family="Verdana" font-size="14" lengthAdjust="spacing" textLength="481.1133" x="1174.1" y="270.251">+place_on_needle(stitches_on_hold: List[Dict], join_side: str): void</text><text fill="#000000" font-family="Verdana" font-size="14" lengthAdjust="spacing" textLength="209.5762" x="1174.1" y="287.2656">+get_row_num(side: str): int</text><text fill="#000000" font-family="Verdana" font-size="14" lengthAdjust="spacing" textLength="466.5869" x="1174.1" y="304.2803">+add_nodes(row: List[str], side: str, isRound: bool = False): void</text><text fill="#000000" font-family="Verdana" font-size="14" lengthAdjust="spacing" textLength="364.2256" x="1174.1" y="321.2949">+add_round(pattern: Union[str, int]): ChartSection</text><text fill="#000000" font-family="Verdana" font-size="14" lengthAdjust="spacing" textLength="513.1328" x="1174.1" y="338.3096">+add_row(pattern: Union[str, int], isRound: bool = False): ChartSection</text><text fill="#000000" font-family="Verdana" font-size="14" lengthAdjust="spacing" textLength="229.7012" x="1174.1" y="355.3242">+cast_on_start(count: int): void</text><text fill="#000000" font-family="Verdana" font-size="14" lengthAdjust="spacing" textLength="249.1973" x="1174.1" y="372.3389">+cast_on(count: int): ChartSection</text><text fill="#000000" font-family="Verdana" font-size="14" lengthAdjust="spacing" textLength="290.8418" x="1174.1" y="389.3535">+join(other: ChartSection): ChartSection</text><text fill="#000000" font-family="Verdana" font-size="14" lengthAdjust="spacing" textLength="313.749" x="1174.1" y="406.3682">+place_marker(side: str, position: int): void</text><text fill="#000000" font-family="Verdana" font-size="14" lengthAdjust="spacing" textLength="238.4648" x="1174.1" y="423.3828">+get_markers(side: str): List[int]</text><text fill="#000000" font-family="Verdana" font-size="14" lengthAdjust="spacing" textLength="391.4463" x="1174.1" y="440.3975">+repeat_rows(row_patterns: List[str], count: int): void</text><text fill="#000000" font-family="Verdana" font-size="14" lengthAdjust="spacing" textLength="406.4307" x="1174.1" y="457.4121">+repeat_rounds(row_patterns: List[str], count: int): void</text><text fill="#000000" font-family="Verdana" font-size="14" lengthAdjust="spacing" textLength="129.0488" x="1174.1" y="474.4268">+nodes: List[Dict]</text><text fill="#000000" font-family="Verdana" font-size="14" lengthAdjust="spacing" textLength="119.458" x="1174.1" y="491.4414">+links: List[Dict]</text><text fill="#000000" font-family="Verdana" font-size="14" lengthAdjust="spacing" textLength="149.0645" x="1174.1" y="508.4561">+rows: List[List[str]]</text><text fill="#000000" font-family="Verdana" font-size="14" lengthAdjust="spacing" textLength="1039.9854" x="1174.1" y="525.4707">-_create_nodes_for_row(row: List[str], unconsumed_stitches: List[Dict], side: str, row_num: int, anchors: List[float], isRound: bool = False): void</text><text fill="#000000" font-family="Verdana" font-size="14" lengthAdjust="spacing" textLength="247.3652" x="1174.1" y="542.4854">-_add_horizontal_links(i: int): void</text><text fill="#000000" font-family="Verdana" font-size="14" lengthAdjust="spacing" textLength="463.1758" x="1174.1" y="559.5">-_validate_row_consumption(consumed: int, produced: int): void</text></g><!--class NodeManager--><g class="entity" data-entity="NodeManager" data-source-line="38" data-uid="ent0003" id="entity_NodeManager"><rect fill="#FFFFFF" height="265.1904" rx="2.5" ry="2.5" style="stroke:#000000;stroke-width:1;" width="555.6348" x="1323.28" y="967.6"/><ellipse cx="1549.0754" cy="981.6" fill="#FFFFFF" rx="9" ry="9" style="stroke:#000000;stroke-width:1;"/><path d="M1551.5486,987.7431 Q1550.9675,988.0419 1550.3283,988.1913 Q1549.6892,988.3407 1548.9836,988.3407 Q1546.4768,988.3407 1545.157,986.6889 Q1543.8371,985.037 1543.8371,981.9159 Q1543.8371,978.7865 1545.157,977.1347 Q1546.4768,975.4828 1548.9836,975.4828 Q1549.6892,975.4828 1550.3366,975.6322 Q1550.9841,975.7816 1551.5486,976.0805 L1551.5486,978.8031 Q1550.9177,978.2221 1550.3242,977.9523 Q1549.7307,977.6825 1549.0998,977.6825 Q1547.7551,977.6825 1547.0703,978.7492 Q1546.3855,979.8158 1546.3855,981.9159 Q1546.3855,984.0077 1547.0703,985.0744 Q1547.7551,986.141 1549.0998,986.141 Q1549.7307,986.141 1550.3242,985.8712 Q1550.9177,985.6015 1551.5486,985.0204 Z " fill="#000000"/><text fill="#000000" font-family="Verdana" font-size="14" lengthAdjust="spacing" textLength="96.5439" x="1566.5754" y="987.1679">NodeManager</text><line style="stroke:#000000;stroke-width:1;" x1="1324.28" x2="1877.9148" y1="995.6" y2="995.6"/><text fill="#000000" font-family="Verdana" font-size="14" lengthAdjust="spacing" textLength="123.9492" x="1329.28" y="1013.6752">-nodes: List[Dict]</text><text fill="#000000" font-family="Verdana" font-size="14" lengthAdjust="spacing" textLength="132.5146" x="1329.28" y="1030.6898">-node_counter: int</text><text fill="#000000" font-family="Verdana" font-size="14" lengthAdjust="spacing" textLength="204.9824" x="1329.28" y="1047.7045">-last_row_stitches: List[Dict]</text><text fill="#000000" font-family="Verdana" font-size="14" lengthAdjust="spacing" textLength="303.085" x="1329.28" y="1064.7191">-last_row_unconsumed_stitches: List[Dict]</text><text fill="#000000" font-family="Verdana" font-size="14" lengthAdjust="spacing" textLength="201.2705" x="1329.28" y="1081.7338">-stitches_on_hold: List[Dict]</text><text fill="#000000" font-family="Verdana" font-size="14" lengthAdjust="spacing" textLength="169.7773" x="1329.28" y="1098.7484">-last_row_produced: int</text><line style="stroke:#000000;stroke-width:1;" x1="1324.28" x2="1877.9148" y1="1105.6879" y2="1105.6879"/><text fill="#000000" font-family="Verdana" font-size="14" lengthAdjust="spacing" textLength="543.6348" x="1329.28" y="1123.7631">+set_last_row_unconsumed_stitches(unconsumed_stitches: List[Dict]): void</text><text fill="#000000" font-family="Verdana" font-size="14" lengthAdjust="spacing" textLength="250.5645" x="1329.28" y="1140.7777">+get_stitches_on_hold(): List[Dict]</text><text fill="#000000" font-family="Verdana" font-size="14" lengthAdjust="spacing" textLength="202.7539" x="1329.28" y="1157.7924">+set_stitches_on_hold(): int</text><text fill="#000000" font-family="Verdana" font-size="14" lengthAdjust="spacing" textLength="448.0684" x="1329.28" y="1174.807">+places_stitches_on_needle(stitches_on_hold: List[Dict]): void</text><text fill="#000000" font-family="Verdana" font-size="14" lengthAdjust="spacing" textLength="323.4014" x="1329.28" y="1191.8217">+set_last_row_produced(produced: int): void</text><text fill="#000000" font-family="Verdana" font-size="14" lengthAdjust="spacing" textLength="530.7354" x="1329.28" y="1208.8363">+create_stitch_node(stitch: str, fx: float, fy: float, row: int): Dict[str, Any]</text><text fill="#000000" font-family="Verdana" font-size="14" lengthAdjust="spacing" textLength="327.4141" x="1329.28" y="1225.851">+create_strand_node(row: int): Dict[str, Any]</text></g><!--class LinkManager--><g class="entity" data-entity="LinkManager" data-source-line="55" data-uid="ent0004" id="entity_LinkManager"><rect fill="#FFFFFF" height="95.0439" rx="2.5" ry="2.5" style="stroke:#000000;stroke-width:1;" width="416.7422" x="2354.72" y="1052.67"/><ellipse cx="2514.6956" cy="1066.67" fill="#FFFFFF" rx="9" ry="9" style="stroke:#000000;stroke-width:1;"/><path d="M2517.1687,1072.8131 Q2516.5877,1073.1119 2515.9485,1073.2613 Q2515.3094,1073.4107 2514.6038,1073.4107 Q2512.097,1073.4107 2510.7771,1071.7589 Q2509.4573,1070.107 2509.4573,1066.9859 Q2509.4573,1063.8565 2510.7771,1062.2047 Q2512.097,1060.5528 2514.6038,1060.5528 Q2515.3094,1060.5528 2515.9568,1060.7022 Q2516.6043,1060.8516 2517.1687,1061.1505 L2517.1687,1063.8731 Q2516.5379,1063.2921 2515.9444,1063.0223 Q2515.3509,1062.7525 2514.72,1062.7525 Q2513.3753,1062.7525 2512.6905,1063.8192 Q2512.0056,1064.8858 2512.0056,1066.9859 Q2512.0056,1069.0777 2512.6905,1070.1444 Q2513.3753,1071.211 2514.72,1071.211 Q2515.3509,1071.211 2515.9444,1070.9412 Q2516.5379,1070.6715 2517.1687,1070.0904 Z " fill="#000000"/><text fill="#000000" font-family="Verdana" font-size="14" lengthAdjust="spacing" textLength="89.291" x="2532.1956" y="1072.2379">LinkManager</text><line style="stroke:#000000;stroke-width:1;" x1="2355.72" x2="2770.4622" y1="1080.67" y2="1080.67"/><text fill="#000000" font-family="Verdana" font-size="14" lengthAdjust="spacing" textLength="114.3584" x="2360.72" y="1098.7452">-links: List[Dict]</text><line style="stroke:#000000;stroke-width:1;" x1="2355.72" x2="2770.4622" y1="1105.6846" y2="1105.6846"/><text fill="#000000" font-family="Verdana" font-size="14" lengthAdjust="spacing" textLength="404.7422" x="2360.72" y="1123.7598">+add_horizontal_link(source_id: str, target_id: str): void</text><text fill="#000000" font-family="Verdana" font-size="14" lengthAdjust="spacing" textLength="386.5928" x="2360.72" y="1140.7745">+add_vertical_link(source_id: str, target_id: str): void</text></g><!--class MarkerManager--><g class="entity" data-entity="MarkerManager" data-source-line="62" data-uid="ent0005" id="entity_MarkerManager"><rect fill="#FFFFFF" height="163.1025" rx="2.5" ry="2.5" style="stroke:#000000;stroke-width:1;" width="594.1895" x="12" y="1018.64"/><ellipse cx="250.6982" cy="1032.64" fill="#FFFFFF" rx="9" ry="9" style="stroke:#000000;stroke-width:1;"/><path d="M253.1714,1038.7831 Q252.5903,1039.0819 251.9512,1039.2313 Q251.312,1039.3807 250.6064,1039.3807 Q248.0996,1039.3807 246.7798,1037.7289 Q245.46,1036.077 245.46,1032.9559 Q245.46,1029.8265 246.7798,1028.1747 Q248.0996,1026.5228 250.6064,1026.5228 Q251.312,1026.5228 251.9595,1026.6722 Q252.6069,1026.8216 253.1714,1027.1205 L253.1714,1029.8431 Q252.5405,1029.2621 251.947,1028.9923 Q251.3535,1028.7225 250.7227,1028.7225 Q249.3779,1028.7225 248.6931,1029.7892 Q248.0083,1030.8558 248.0083,1032.9559 Q248.0083,1035.0477 248.6931,1036.1144 Q249.3779,1037.181 250.7227,1037.181 Q251.3535,1037.181 251.947,1036.9112 Q252.5405,1036.6415 253.1714,1036.0604 Z " fill="#000000"/><text fill="#000000" font-family="Verdana" font-size="14" lengthAdjust="spacing" textLength="109.293" x="268.1982" y="1038.2079">MarkerManager</text><line style="stroke:#000000;stroke-width:1;" x1="13" x2="605.1895" y1="1046.64" y2="1046.64"/><text fill="#000000" font-family="Verdana" font-size="14" lengthAdjust="spacing" textLength="153.0771" x="18" y="1064.7152">-markers_rs: List[int]</text><text fill="#000000" font-family="Verdana" font-size="14" lengthAdjust="spacing" textLength="158.5596" x="18" y="1081.7298">-markers_ws: List[int]</text><line style="stroke:#000000;stroke-width:1;" x1="13" x2="605.1895" y1="1088.6693" y2="1088.6693"/><text fill="#000000" font-family="Verdana" font-size="14" lengthAdjust="spacing" textLength="436.7002" x="18" y="1106.7445">+add_marker(side: str, position: int, num_stitches: int): void</text><text fill="#000000" font-family="Verdana" font-size="14" lengthAdjust="spacing" textLength="165.4502" x="18" y="1123.7591">+clear_markers(): void</text><text fill="#000000" font-family="Verdana" font-size="14" lengthAdjust="spacing" textLength="582.1895" x="18" y="1140.7738">+move_marker(side: str, position: int, shift_amount: int, num_stitches: int): void</text><text fill="#000000" font-family="Verdana" font-size="14" lengthAdjust="spacing" textLength="330.1963" x="18" y="1157.7884">+remove_marker(side: str, position: int): void</text><text fill="#000000" font-family="Verdana" font-size="14" lengthAdjust="spacing" textLength="238.4648" x="18" y="1174.8031">+get_markers(side: str): List[int]</text></g><!--class RowManager--><g class="entity" data-entity="RowManager" data-source-line="73" data-uid="ent0006" id="entity_RowManager"><rect fill="#FFFFFF" height="214.1465" rx="2.5" ry="2.5" style="stroke:#000000;stroke-width:1;" width="525.707" x="3063.24" y="651.95"/><ellipse cx="3277.2434" cy="665.95" fill="#FFFFFF" rx="9" ry="9" style="stroke:#000000;stroke-width:1;"/><path d="M3279.7166,672.0931 Q3279.1355,672.3919 3278.4963,672.5413 Q3277.8572,672.6907 3277.1516,672.6907 Q3274.6448,672.6907 3273.325,671.0389 Q3272.0051,669.387 3272.0051,666.2659 Q3272.0051,663.1365 3273.325,661.4847 Q3274.6448,659.8328 3277.1516,659.8328 Q3277.8572,659.8328 3278.5046,659.9822 Q3279.1521,660.1316 3279.7166,660.4305 L3279.7166,663.1531 Q3279.0857,662.5721 3278.4922,662.3023 Q3277.8987,662.0325 3277.2678,662.0325 Q3275.9231,662.0325 3275.2383,663.0992 Q3274.5535,664.1658 3274.5535,666.2659 Q3274.5535,668.3577 3275.2383,669.4244 Q3275.9231,670.491 3277.2678,670.491 Q3277.8987,670.491 3278.4922,670.2212 Q3279.0857,669.9515 3279.7166,669.3704 Z " fill="#000000"/><text fill="#000000" font-family="Verdana" font-size="14" lengthAdjust="spacing" textLength="90.2002" x="3294.7434" y="671.5179">RowManager</text><line style="stroke:#000000;stroke-width:1;" x1="3064.24" x2="3587.947" y1="679.95" y2="679.95"/><text fill="#000000" font-family="Verdana" font-size="14" lengthAdjust="spacing" textLength="143.9648" x="3069.24" y="698.0252">-rows: List[List[str]]</text><text fill="#000000" font-family="Verdana" font-size="14" lengthAdjust="spacing" textLength="106.2305" x="3069.24" y="715.0398">-start_side: str</text><text fill="#000000" font-family="Verdana" font-size="14" lengthAdjust="spacing" textLength="133.4102" x="3069.24" y="732.0545">-last_row_side: str</text><line style="stroke:#000000;stroke-width:1;" x1="3064.24" x2="3587.947" y1="738.9939" y2="738.9939"/><text fill="#000000" font-family="Verdana" font-size="14" lengthAdjust="spacing" textLength="250.0996" x="3069.24" y="757.0691">+set_last_row_side(side: str): void</text><text fill="#000000" font-family="Verdana" font-size="14" lengthAdjust="spacing" textLength="233.6182" x="3069.24" y="774.0838">+add_round(row: List[str]): void</text><text fill="#000000" font-family="Verdana" font-size="14" lengthAdjust="spacing" textLength="382.5254" x="3069.24" y="791.0984">+add_row(row: List[str], isRound: bool = False): void</text><text fill="#000000" font-family="Verdana" font-size="14" lengthAdjust="spacing" textLength="257.3184" x="3069.24" y="808.1131">+duplicate_row(index: int): List[str]</text><text fill="#000000" font-family="Verdana" font-size="14" lengthAdjust="spacing" textLength="319.5322" x="3069.24" y="825.1277">+is_wrong_side(isRound: bool = False): bool</text><text fill="#000000" font-family="Verdana" font-size="14" lengthAdjust="spacing" textLength="513.707" x="3069.24" y="842.1424">+reverse_row_if_needed(row: List[str], isRound: bool = False): List[str]</text><text fill="#000000" font-family="Verdana" font-size="14" lengthAdjust="spacing" textLength="273.2871" x="3069.24" y="859.157">-_validate_row_index(index: int): void</text></g><!--class PatternParser--><g class="entity" data-entity="PatternParser" data-source-line="87" data-uid="ent0007" id="entity_PatternParser"><rect fill="#FFFFFF" height="180.1172" rx="2.5" ry="2.5" style="stroke:#000000;stroke-width:1;" width="702.0811" x="307.05" y="668.96"/><ellipse cx="606.5949" cy="682.96" fill="#FFFFFF" rx="9" ry="9" style="stroke:#000000;stroke-width:1;"/><path d="M609.0681,689.1031 Q608.487,689.4019 607.8479,689.5513 Q607.2087,689.7007 606.5031,689.7007 Q603.9963,689.7007 602.6765,688.0489 Q601.3566,686.397 601.3566,683.2759 Q601.3566,680.1465 602.6765,678.4947 Q603.9963,676.8428 606.5031,676.8428 Q607.2087,676.8428 607.8562,676.9922 Q608.5036,677.1416 609.0681,677.4405 L609.0681,680.1631 Q608.4372,679.5821 607.8437,679.3123 Q607.2502,679.0425 606.6193,679.0425 Q605.2746,679.0425 604.5898,680.1092 Q603.905,681.1758 603.905,683.2759 Q603.905,685.3677 604.5898,686.4344 Q605.2746,687.501 606.6193,687.501 Q607.2502,687.501 607.8437,687.2312 Q608.4372,686.9615 609.0681,686.3804 Z " fill="#000000"/><text fill="#000000" font-family="Verdana" font-size="14" lengthAdjust="spacing" textLength="95.4912" x="624.0949" y="688.5279">PatternParser</text><line style="stroke:#000000;stroke-width:1;" x1="308.05" x2="1008.1311" y1="696.96" y2="696.96"/><text fill="#000000" font-family="Verdana" font-size="14" lengthAdjust="spacing" textLength="333.6416" x="313.05" y="715.0352">-CONSUME_PRODUCE: Dict[str, Tuple[int, int]]</text><text fill="#000000" font-family="Verdana" font-size="14" lengthAdjust="spacing" textLength="271.7969" x="313.05" y="732.0498">-get_markers: Callable[[str], List[int]]</text><text fill="#000000" font-family="Verdana" font-size="14" lengthAdjust="spacing" textLength="346.1514" x="313.05" y="749.0645">-move_marker: Callable[[str, int, int, int], None]</text><text fill="#000000" font-family="Verdana" font-size="14" lengthAdjust="spacing" textLength="304.001" x="313.05" y="766.0791">-remove_marker: Callable[[str, int], None]</text><line style="stroke:#000000;stroke-width:1;" x1="308.05" x2="1008.1311" y1="773.0186" y2="773.0186"/><text fill="#000000" font-family="Verdana" font-size="14" lengthAdjust="spacing" textLength="690.0811" x="313.05" y="791.0938">+expand_pattern(pattern: str, available_stitches: int, side: str): Tuple[List[str], int, int, List[int]]</text><text fill="#000000" font-family="Verdana" font-size="14" lengthAdjust="spacing" textLength="511.7041" x="313.05" y="808.1084">-_split_by_sm(pattern: str, side: str): Tuple[List[str], List[int], List[int]]</text><text fill="#000000" font-family="Verdana" font-size="14" lengthAdjust="spacing" textLength="257.708" x="313.05" y="825.1231">+split_tokens(pattern: str): List[str]</text><text fill="#000000" font-family="Verdana" font-size="14" lengthAdjust="spacing" text-decoration="underline" textLength="290.2744" x="313.05" y="842.1377">+parse_token(token: str): Tuple[str, int]</text></g><!--class PositionCalculator--><g class="entity" data-entity="PositionCalculator" data-source-line="99" data-uid="ent0008" id="entity_PositionCalculator"><rect fill="#FFFFFF" height="231.1611" rx="2.5" ry="2.5" style="stroke:#000000;stroke-width:1;" width="1092.7549" x="1478.72" y="643.44"/><ellipse cx="1958.7439" cy="657.44" fill="#FFFFFF" rx="9" ry="9" style="stroke:#000000;stroke-width:1;"/><path d="M1961.2171,663.5831 Q1960.636,663.8819 1959.9969,664.0313 Q1959.3577,664.1807 1958.6521,664.1807 Q1956.1453,664.1807 1954.8255,662.5289 Q1953.5056,660.877 1953.5056,657.7559 Q1953.5056,654.6265 1954.8255,652.9747 Q1956.1453,651.3228 1958.6521,651.3228 Q1959.3577,651.3228 1960.0052,651.4722 Q1960.6526,651.6216 1961.2171,651.9205 L1961.2171,654.6431 Q1960.5862,654.0621 1959.9927,653.7923 Q1959.3992,653.5225 1958.7683,653.5225 Q1957.4236,653.5225 1956.7388,654.5892 Q1956.054,655.6558 1956.054,657.7559 Q1956.054,659.8477 1956.7388,660.9144 Q1957.4236,661.981 1958.7683,661.981 Q1959.3992,661.981 1959.9927,661.7112 Q1960.5862,661.4415 1961.2171,660.8604 Z " fill="#000000"/><text fill="#000000" font-family="Verdana" font-size="14" lengthAdjust="spacing" textLength="125.207" x="1976.2439" y="663.0079">PositionCalculator</text><line style="stroke:#000000;stroke-width:1;" x1="1479.72" x2="2570.4749" y1="671.44" y2="671.44"/><text fill="#000000" font-family="Verdana" font-size="14" lengthAdjust="spacing" textLength="186.2246" x="1484.72" y="689.5152">-DEFAULT_SPACING: float</text><text fill="#000000" font-family="Verdana" font-size="14" lengthAdjust="spacing" textLength="147.5879" x="1484.72" y="706.5298">-ROW_HEIGHT: float</text><text fill="#000000" font-family="Verdana" font-size="14" lengthAdjust="spacing" textLength="166.9883" x="1484.72" y="723.5445">-BASE_Y_OFFSET: float</text><line style="stroke:#000000;stroke-width:1;" x1="1479.72" x2="2570.4749" y1="730.4839" y2="730.4839"/><text fill="#000000" font-family="Verdana" font-size="14" lengthAdjust="spacing" textLength="260.2373" x="1484.72" y="748.5591">+set_guage(sts: int, rows: int): void</text><text fill="#000000" font-family="Verdana" font-size="14" lengthAdjust="spacing" textLength="399.6152" x="1484.72" y="765.5738">+centered_array(n: int, spacing: int = None): List[float]</text><text fill="#000000" font-family="Verdana" font-size="14" lengthAdjust="spacing" textLength="972.6992" x="1484.72" y="782.5884">+calculate_anchors(row: List[str], side: str, previous_stitches: List[Dict], link_manager: LinkManager, node_counter: int = 0): List[float]</text><text fill="#000000" font-family="Verdana" font-size="14" lengthAdjust="spacing" textLength="1027.667" x="1484.72" y="799.6031">-_calculate_from_previous_row(row: List[str], side: str, previous_stitches: List[Dict], link_manager: LinkManager, node_counter: int): List[float]</text><text fill="#000000" font-family="Verdana" font-size="14" lengthAdjust="spacing" textLength="1080.7549" x="1484.72" y="816.6177">-_add_increase_decrease_links(stitch: str, prev_i: int, current_i: int, previous_stitches: List[Dict], link_manager: LinkManager, node_counter: int): void</text><text fill="#000000" font-family="Verdana" font-size="14" lengthAdjust="spacing" textLength="254.5771" x="1484.72" y="833.6324">-_is_regular_stitch(stitch: str): bool</text><text fill="#000000" font-family="Verdana" font-size="14" lengthAdjust="spacing" textLength="721.6563" x="1484.72" y="850.647">-_calculate_increase_decrease_anchor(i: int, prev_i: int, previous_stitches: List[Dict], side: str): float</text><text fill="#000000" font-family="Verdana" font-size="14" lengthAdjust="spacing" textLength="453.9883" x="1484.72" y="867.6617">-_center_anchors(anchors: List[float], row: List[str]): List[float]</text></g><g class="entity" data-entity="GMN19" data-source-line="129" data-uid="ent0020" id="entity_GMN19"><path d="M2319.62,260.52 L2319.62,285.22 L2220.35,289.22 L2319.62,293.22 L2319.62,317.9179 A0,0 0 0 0 2319.62,317.9179 L2586.5663,317.9179 A0,0 0 0 0 2586.5663,317.9179 L2586.5663,270.52 L2576.5663,260.52 L2319.62,260.52 A0,0 0 0 0 2319.62,260.52" fill="#FFFFFF" style="stroke:#000000;stroke-width:1;"/><path d="M2576.5663,260.52 L2576.5663,270.52 L2586.5663,270.52 L2576.5663,260.52" fill="#FFFFFF" style="stroke:#000000;stroke-width:1;"/><text fill="#000000" font-family="Verdana" font-size="13" lengthAdjust="spacing" textLength="245.9463" x="2325.62" y="278.5898">ChartSection is the main orchestrator</text><text fill="#000000" font-family="Verdana" font-size="13" lengthAdjust="spacing" textLength="212.6084" x="2325.62" y="294.3891">that coordinates all managers to</text><text fill="#000000" font-family="Verdana" font-size="13" lengthAdjust="spacing" textLength="157.0537" x="2325.62" y="310.1885">generate knitting charts</text></g><g class="entity" data-entity="GMN22" data-source-line="135" data-uid="ent0023" id="entity_GMN22"><path d="M1044.19,730.32 L1044.19,755.02 L1009.41,759.02 L1044.19,763.02 L1044.19,787.7179 A0,0 0 0 0 1044.19,787.7179 L1294.004,787.7179 A0,0 0 0 0 1294.004,787.7179 L1294.004,740.32 L1284.004,730.32 L1044.19,730.32 A0,0 0 0 0 1044.19,730.32" fill="#FFFFFF" style="stroke:#000000;stroke-width:1;"/><path d="M1284.004,730.32 L1284.004,740.32 L1294.004,740.32 L1284.004,730.32" fill="#FFFFFF" style="stroke:#000000;stroke-width:1;"/><text fill="#000000" font-family="Verdana" font-size="13" lengthAdjust="spacing" textLength="228.814" x="1050.19" y="748.3898">PatternParser uses MarkerManager</text><text fill="#000000" font-family="Verdana" font-size="13" lengthAdjust="spacing" textLength="193.4385" x="1050.19" y="764.1891">methods via callbacks passed</text><text fill="#000000" font-family="Verdana" font-size="13" lengthAdjust="spacing" textLength="90.2573" x="1050.19" y="779.9885">in constructor</text></g><g class="entity" data-entity="GMN25" data-source-line="141" data-uid="ent0026" id="entity_GMN25"><path d="M2606.22,722.42 L2606.22,755.02 L2571.95,759.02 L2606.22,763.02 L2606.22,795.6173 A0,0 0 0 0 2606.22,795.6173 L2877.9715,795.6173 A0,0 0 0 0 2877.9715,795.6173 L2877.9715,732.42 L2867.9715,722.42 L2606.22,722.42 A0,0 0 0 0 2606.22,722.42" fill="#FFFFFF" style="stroke:#000000;stroke-width:1;"/><path d="M2867.9715,722.42 L2867.9715,732.42 L2877.9715,732.42 L2867.9715,722.42" fill="#FFFFFF" style="stroke:#000000;stroke-width:1;"/><text fill="#000000" font-family="Verdana" font-size="13" lengthAdjust="spacing" textLength="156.2539" x="2612.22" y="740.4898">PositionCalculator uses:</text><text fill="#000000" font-family="Verdana" font-size="13" lengthAdjust="spacing" textLength="190.6772" x="2612.22" y="756.2891">- LinkManager to create links</text><text fill="#000000" font-family="Verdana" font-size="13" lengthAdjust="spacing" textLength="250.7515" x="2612.22" y="772.0885">- NodeManager's node data structures</text><text fill="#000000" font-family="Verdana" font-size="13" lengthAdjust="spacing" textLength="204.7119" x="2612.22" y="787.8878">- NodeManager's node_counter</text></g><!--reverse link ChartSection to RowManager--><g class="link" data-entity-1="ChartSection" data-entity-2="RowManager" data-source-line="115" data-uid="lnk9" id="link_ChartSection_RowManager"><path codeLine="115" d="M2231.8423,547.2258 C2259.1523,555.8558 2275.04,559.95 2302.09,566.44 C2592.81,636.2 2683.52,526.11 2974.09,596.44 C3026.22,609.05 3080.02,629.49 3129.41,651.65" fill="none" id="ChartSection-backto-RowManager" style="stroke:#000000;stroke-width:1;"/><polygon fill="#000000" points="2220.4,543.61,2224.9159,549.232,2231.8423,547.2258,2227.3264,541.6038,2220.4,543.61" style="stroke:#000000;stroke-width:1;"/><text fill="#000000" font-family="Verdana" font-size="13" lengthAdjust="spacing" textLength="78.4443" x="3025.61" y="610.5098">composition</text></g><!--reverse link ChartSection to NodeManager--><g class="link" data-entity-1="ChartSection" data-entity-2="NodeManager" data-source-line="116" data-uid="lnk10" id="link_ChartSection_NodeManager"><path codeLine="116" d="M1412.7483,577.0911 C1397.8083,601.7311 1391.08,617.1 1381.09,643.44 C1344.66,739.5 1342.27,779.48 1381.09,874.6 C1394.76,908.08 1416.09,939.27 1440.19,967.12" fill="none" id="ChartSection-backto-NodeManager" style="stroke:#000000;stroke-width:1;"/><polygon fill="#000000" points="1418.97,566.83,1412.4388,569.8867,1412.7483,577.0911,1419.2796,574.0345,1418.97,566.83" style="stroke:#000000;stroke-width:1;"/><text fill="#000000" font-family="Verdana" font-size="13" lengthAdjust="spacing" textLength="78.4443" x="1382.09" y="764.5898">composition</text></g><!--reverse link ChartSection to LinkManager--><g class="link" data-entity-1="ChartSection" data-entity-2="LinkManager" data-source-line="117" data-uid="lnk11" id="link_ChartSection_LinkManager"><path codeLine="117" d="M2231.6304,544.4436 C2259.0304,553.9236 2275.06,558.73 2302.09,566.44 C2429.88,602.88 2807.39,543.61 2895.09,643.44 C2962.9,720.62 2943.27,783.85 2895.09,874.6 C2850.8,958.04 2760.13,1016.14 2684.72,1052.31" fill="none" id="ChartSection-backto-LinkManager" style="stroke:#000000;stroke-width:1;"/><polygon fill="#000000" points="2220.29,540.52,2224.6523,546.262,2231.6304,544.4436,2227.2681,538.7017,2220.29,540.52" style="stroke:#000000;stroke-width:1;"/><text fill="#000000" font-family="Verdana" font-size="13" lengthAdjust="spacing" textLength="78.4443" x="2939.89" y="764.5898">composition</text></g><!--reverse link ChartSection to PositionCalculator--><g class="link" data-entity-1="ChartSection" data-entity-2="PositionCalculator" data-source-line="118" data-uid="lnk12" id="link_ChartSection_PositionCalculator"><path codeLine="118" d="M1896.681,576.526 C1915.551,603.196 1926.95,619.31 1943.71,643" fill="none" id="ChartSection-backto-PositionCalculator" style="stroke:#000000;stroke-width:1;"/><polygon fill="#000000" points="1889.75,566.73,1889.9502,573.9383,1896.681,576.526,1896.4808,569.3177,1889.75,566.73" style="stroke:#000000;stroke-width:1;"/><text fill="#000000" font-family="Verdana" font-size="13" lengthAdjust="spacing" textLength="78.4443" x="1919.03" y="610.5098">composition</text></g><!--reverse link ChartSection to MarkerManager--><g class="link" data-entity-1="ChartSection" data-entity-2="MarkerManager" data-source-line="119" data-uid="lnk13" id="link_ChartSection_MarkerManager"><path codeLine="119" d="M1155.8845,348.2037 C778.4945,400.7137 328.4,492.42 209.09,643.44 C123.1,752.29 196.9,919.46 255.2,1018.21" fill="none" id="ChartSection-backto-MarkerManager" style="stroke:#000000;stroke-width:1;"/><polygon fill="#000000" points="1167.77,346.55,1161.276,343.415,1155.8845,348.2037,1162.3785,351.3387,1167.77,346.55" style="stroke:#000000;stroke-width:1;"/><text fill="#000000" font-family="Verdana" font-size="13" lengthAdjust="spacing" textLength="78.4443" x="210.09" y="764.5898">composition</text></g><!--reverse link ChartSection to PatternParser--><g class="link" data-entity-1="ChartSection" data-entity-2="PatternParser" data-source-line="120" data-uid="lnk14" id="link_ChartSection_PatternParser"><path codeLine="120" d="M1156.813,532.8279 C1045.603,583.0379 945.85,628.09 856.18,668.58" fill="none" id="ChartSection-backto-PatternParser" style="stroke:#000000;stroke-width:1;"/><polygon fill="#000000" points="1167.75,527.89,1160.6356,526.7133,1156.813,532.8279,1163.9275,534.0046,1167.75,527.89" style="stroke:#000000;stroke-width:1;"/><text fill="#000000" font-family="Verdana" font-size="13" lengthAdjust="spacing" textLength="78.4443" x="994.2" y="610.5098">composition</text></g><!--link PatternParser to MarkerManager--><g class="link" data-entity-1="PatternParser" data-entity-2="MarkerManager" data-source-line="123" data-uid="lnk15" id="link_PatternParser_MarkerManager"><path codeLine="123" d="M565.94,849.58 C512.02,901.98 448.7927,963.4283 396.5127,1014.2383" fill="none" id="PatternParser-to-MarkerManager" style="stroke:#000000;stroke-width:1;stroke-dasharray:7,7;"/><polygon fill="#000000" points="392.21,1018.42,401.4519,1015.0159,395.7956,1014.9352,395.8762,1009.279,392.21,1018.42" style="stroke:#000000;stroke-width:1;"/><text fill="#000000" font-family="Verdana" font-size="13" lengthAdjust="spacing" textLength="29.5166" x="537.8853" y="918.6698">uses</text><text fill="#000000" font-family="Verdana" font-size="13" lengthAdjust="spacing" textLength="94.3071" x="505.49" y="934.4691">(via callbacks)</text></g><!--link PositionCalculator to LinkManager--><g class="link" data-entity-1="PositionCalculator" data-entity-2="LinkManager" data-source-line="124" data-uid="lnk16" id="link_PositionCalculator_LinkManager"><path codeLine="124" d="M2207.61,875.09 C2303.76,935.7 2411.3144,1003.5102 2483.6144,1049.0902" fill="none" id="PositionCalculator-to-LinkManager" style="stroke:#000000;stroke-width:1;"/><polygon fill="#000000" points="2488.69,1052.29,2483.2098,1044.1066,2484.4604,1049.6235,2478.9435,1050.874,2488.69,1052.29" style="stroke:#000000;stroke-width:1;"/><text fill="#000000" font-family="Verdana" font-size="13" lengthAdjust="spacing" textLength="29.5166" x="2295.09" y="926.6698">uses</text></g><!--link PositionCalculator to NodeManager--><g class="link" data-entity-1="PositionCalculator" data-entity-2="NodeManager" data-source-line="125" data-uid="lnk17" id="link_PositionCalculator_NodeManager"><path codeLine="125" d="M1881.25,875.09 C1844.27,904.67 1808.875,932.9815 1770.905,963.3615" fill="none" id="PositionCalculator-to-NodeManager" style="stroke:#000000;stroke-width:1;stroke-dasharray:7,7;"/><polygon fill="#000000" points="1766.22,967.11,1775.7464,964.6106,1770.1241,963.9863,1770.7485,958.364,1766.22,967.11" style="stroke:#000000;stroke-width:1;"/><text fill="#000000" font-family="Verdana" font-size="13" lengthAdjust="spacing" textLength="29.5166" x="1897.3675" y="918.6698">uses</text><text fill="#000000" font-family="Verdana" font-size="13" lengthAdjust="spacing" textLength="145.2915" x="1839.48" y="934.4691">(node data &amp; counter)</text></g><!--link ChartSection to ChartSection--><g class="link" data-entity-1="ChartSection" data-entity-2="ChartSection" data-source-line="126" data-uid="lnk18" id="link_ChartSection_ChartSection"><path codeLine="126" d="M2220.39,253.58 C2242.35,262.77 2255.09,274.65 2255.09,289.22 C2255.09,303.79 2247.8849,313.3537 2225.9249,322.5437" fill="none" id="ChartSection-to-ChartSection" style="stroke:#000000;stroke-width:1;stroke-dasharray:7,7;"/><polygon fill="#000000" points="2220.39,324.86,2230.2365,325.0755,2225.0024,322.9298,2227.1481,317.6957,2220.39,324.86" style="stroke:#000000;stroke-width:1;"/><text fill="#000000" font-family="Verdana" font-size="13" lengthAdjust="spacing" textLength="35.9658" x="2261.09" y="294.7898">join()</text></g><!--SRC=[jLZRRjms47tVhs1V6hdrfdbU805SUvqOy0s-e2XSWw0bxYvhYLoGb2y9ykyTNaIH4jUxATeyE2jnE3oSENCur4zwHHkArZLXVA8U6LyJIHfKraIf0wqbUsWrFIa5lsPVAVemcTWHTBWYKb_JKZF1qRS9WdzJn4b3PqXfwP-L1YEiM9MybU8PDuIJ9PKpT2MUpzplpeUeQ3zy3a_fUCtuOpz-2a_f-5eePa3XajHbMnCjmEpIlpmCxxnrG-GZbRs_C_iyy4Yqff9Z28moDfVk-T8-Efkf_UzNjAGQbwsKb6jijidRfjYR8SPrnW06iLXWfPakLrID3RiH3BjPYReo5gTCwRiZLkfxRmY9A-bk5fpIggR5q6qyPH_zBHZlKmR-dWIh8b3TjcAJ7ZQfAcmog0gmyux11lm6-tt4r9LeEQpx84IDFg9ZKYkQhcJyI6DK-EZFq2s71Duv1rpVWttCmMJUyyPPcnVFE2k9qYP8biP52TEqtMiArLkbunbl9h25W6gJwN3UsYNDqRE8OjVHEmF4PCTDK4bsR1BCvhsTf6jAR29jbh2FbKhIjMctOJB4y5zCjzp8SDHKTUwz0UbV1-_tlYvnAG4ATNp32o5jveUyQpbebseRMeLwIWaV1TTps-BUHuINAo4xwqKjo5ly2Pi4O8Q5C9Lz5LoJ6jlD5MmK3h1y8ZMhp2RCqWxesgItw41xB6ifghRqZvsFxvqOHohPQt4sqbvVRNeC4RlA1LqrD3OeSb4Qscm9Qf3_pK8pz9XiC1LL1Rn-Q-LY2vfnbUmah6g3OIzsjaPLOhI3nAPmairrGIYowVPouqZlLh3Szwjv3YzUPiXo5Nw-Xf-sAfml0y89uW5_lHzwbOGx1IysJmcyYqxVmBjy9OTaPagZKAAL87Qiybi0kJLPyi_ZW-69IitA7viTC2SdV43jTHE7SWzwsOyzZyVYNMtHwdraplkUd-F4rfJ88E3fM2EUwFO5r8ejD2PDqDwjQqgwY-SVFMP2hFlcBWJwBK7FjukzCAK3MNamDiM6xgNlAT8p8cSrFaTsQ5ggTbq3BvsQ5unNzAMBNt3aJHdGIGg-T80t-JQF8LF0UkNE2RQmEaEhdK6com_F7OiqnPlMJDBnXbGUNfnVtvxDyUNLnT7juJoMYHk81Bsp33ICw9QDg0DD3wbhyW1c7dlWJwYxdfe3wttKkUwwkdF1QJSl8NLkPchVyOY-h8ts-NQcxo3jBF94cFMILbFKFK3GtAxZT0IKeyrX1LpH-E4LgsQmrfikWwEHJwW4wrABHyfLuZD3m6zGR22Ytv6zrRX9XVsRBXrY5h5XT9aAb3YQ7n_SdjxWwyk3mvFpp_xuyODN5t_WB_EJprzkqlU_7rpFyP_uulZuUfuEnIM-R457uAZh0k-4PAoYr3Gsq0aGASbh4QHnJKh6b_O9wiAaVozfx48px_P4iU_-thh7hA4ecMZLXiPouqrrVzo40QOF6K2coGs85b8qEAoPqwZ_1riUbz59natV0FIfgF_XMjsa8J58CFDvwEw-BFIr_oNCkBC6XPLq2P6JtdUCAjRM9CRZ7JaU537WNT77XHmJ7ZkI1ehbBngZGofE0XJZEtH50JCK8fpxQsK4MJJTkOsAv0EDUEOAWGuY7qkrDqd6VvbEuyDw1lUtu6fi6LytjfZ67U8MquoiR9cHjdBRt2TdM6gSYUMj0gU_7S5j5uv5NZAg9gc7z-y_ZG2qYgg_UF74Y16I-e6KZn3fpCQcqq-3q9YfEKkpJ1flluZXFu8ZdA2VaI-3GLBDrEJ5p7s3s9jCkD0KIRPSQIGMmyyFoHoca5vHu0q35ad3SRWYkEzdUaKqB2ranJZKJaemf0MOB2cdO4xH8sTQWm2ZqZXN4uWgCY26K8RVrjAOcwsFFj4rLAz4fL0ITJZMbA96302tkHrgsPO6ziQ5Sry8C_am46OJKyLn_hJmDoXt_R7ZKTRUATIdoq5f9TrargbQZ_KV]--></g></svg>